<svg width="16" height="17" viewBox="0 0 16 17" fill="none" xmlns="http://www.w3.org/2000/svg">
  <path
    d="M1.31201 8.50706C1.31201 7.78244 1.65934 7.11165 2.21801 6.72773L2.33268 6.65477L10.4993 1.62561L10.5833 1.58169C10.8758 1.45605 11.192 1.40569 11.5063 1.43472C11.8206 1.46375 12.1239 1.57135 12.3915 1.74873C12.6592 1.92611 12.8836 2.16824 13.0463 2.45534C13.2091 2.74244 13.3056 3.06638 13.328 3.40069L13.3333 3.54165L13.3333 13.4583L13.3313 13.493L13.3327 13.5724C13.3174 13.8878 13.2361 14.1957 13.0947 14.4736C12.9533 14.7516 12.7554 14.9925 12.5153 15.1789L12.4087 15.2561C12.1592 15.4248 11.8777 15.5326 11.5843 15.5718C11.2909 15.611 10.993 15.5806 10.712 15.4827L10.5827 15.4317L10.4993 15.3892L2.34401 10.3657C2.03136 10.182 1.77075 9.91263 1.58926 9.58564C1.40777 9.25865 1.31204 8.88597 1.31201 8.50636L1.31201 8.50706Z"
    fill="#F13005" />
  <g clip-path="url(#clip0_30_9721)">
    <path d="M11.875 8.5L10.375 11.875L5.125 8.5M11.875 8.5L10.375 5.125L5.125 8.5M11.875 8.5L5.125 8.5"
      stroke="#FAFAFA" stroke-linecap="round" stroke-linejoin="round" />
  </g>
  <defs>
    <clipPath id="clip0_30_9721">
      <rect width="9" height="9" fill="white" transform="translate(4 13) rotate(-90)" />
    </clipPath>
  </defs>
</svg>