<svg width="59" height="17" viewBox="0 0 59 17" fill="none" xmlns="http://www.w3.org/2000/svg">
  <path d="M12 3H55C57.2091 3 59 4.79086 59 7V11C59 13.2091 57.2091 15 55 15H12V3Z" fill="#F13005" />
  <path
    d="M1.31201 8.50706C1.31201 7.78244 1.65934 7.11165 2.21801 6.72773L2.33268 6.65477L10.4993 1.62561L10.5833 1.58169C10.8758 1.45605 11.192 1.40569 11.5063 1.43472C11.8206 1.46375 12.1239 1.57135 12.3915 1.74873C12.6592 1.92611 12.8836 2.16824 13.0463 2.45534C13.2091 2.74244 13.3056 3.06638 13.328 3.40069L13.3333 3.54165L13.3333 13.4583L13.3313 13.493L13.3327 13.5724C13.3174 13.8878 13.2361 14.1957 13.0947 14.4736C12.9533 14.7516 12.7554 14.9925 12.5153 15.1789L12.4087 15.2561C12.1592 15.4248 11.8777 15.5326 11.5843 15.5718C11.2909 15.611 10.993 15.5806 10.712 15.4827L10.5827 15.4317L10.4993 15.3892L2.34401 10.3657C2.03136 10.182 1.77075 9.91263 1.58926 9.58564C1.40777 9.25865 1.31204 8.88597 1.31201 8.50636L1.31201 8.50706Z"
    fill="#F13005" />
  <g clip-path="url(#clip0_47_951)">
    <path d="M11.875 8.5L10.375 11.875L5.125 8.5M11.875 8.5L10.375 5.125L5.125 8.5M11.875 8.5L5.125 8.5"
      stroke="#FAFAFA" stroke-linecap="round" stroke-linejoin="round" />
  </g>
  <path
    d="M16.5369 6.10227C16.8153 6.10417 17.0862 6.15341 17.3494 6.25C17.6146 6.3447 17.8532 6.5 18.0653 6.71591C18.2775 6.92992 18.446 7.21686 18.571 7.5767C18.696 7.93655 18.7585 8.38163 18.7585 8.91193C18.7604 9.41193 18.7074 9.8589 18.5994 10.2528C18.4934 10.6449 18.3409 10.9763 18.142 11.2472C17.9432 11.518 17.7036 11.7244 17.4233 11.8665C17.143 12.0085 16.8277 12.0795 16.4773 12.0795C16.1098 12.0795 15.7841 12.0076 15.5 11.8636C15.2178 11.7197 14.9896 11.5227 14.8153 11.2727C14.6411 11.0227 14.5341 10.7367 14.4943 10.4148H15.5312C15.5843 10.6458 15.6922 10.8295 15.8551 10.9659C16.0199 11.1004 16.2273 11.1676 16.4773 11.1676C16.8807 11.1676 17.1913 10.9924 17.4091 10.642C17.6269 10.2917 17.7358 9.80492 17.7358 9.18182H17.696C17.6032 9.34848 17.483 9.49242 17.3352 9.61364C17.1875 9.73295 17.0199 9.82481 16.8324 9.8892C16.6468 9.9536 16.4498 9.9858 16.2415 9.9858C15.9006 9.9858 15.5938 9.90436 15.321 9.74148C15.0502 9.5786 14.8352 9.35511 14.6761 9.07102C14.5189 8.78693 14.4394 8.46212 14.4375 8.09659C14.4375 7.7178 14.5246 7.37784 14.6989 7.0767C14.875 6.77367 15.1203 6.53504 15.4347 6.3608C15.7491 6.18466 16.1165 6.09848 16.5369 6.10227ZM16.5398 6.95455C16.3352 6.95455 16.1506 7.00473 15.9858 7.10511C15.8229 7.2036 15.6941 7.33807 15.5994 7.50852C15.5066 7.67708 15.4602 7.86553 15.4602 8.07386C15.4621 8.2803 15.5085 8.4678 15.5994 8.63636C15.6922 8.80492 15.8182 8.93845 15.9773 9.03693C16.1383 9.13542 16.322 9.18466 16.5284 9.18466C16.6818 9.18466 16.8248 9.1553 16.9574 9.09659C17.09 9.03788 17.2055 8.95644 17.304 8.85227C17.4044 8.74621 17.482 8.62595 17.5369 8.49148C17.5938 8.35701 17.6212 8.21496 17.6193 8.06534C17.6193 7.86648 17.572 7.68277 17.4773 7.5142C17.3845 7.34564 17.2566 7.21023 17.0938 7.10795C16.9328 7.00568 16.7481 6.95455 16.5398 6.95455ZM21.7244 6.10227C22.0028 6.10417 22.2737 6.15341 22.5369 6.25C22.8021 6.3447 23.0407 6.5 23.2528 6.71591C23.465 6.92992 23.6335 7.21686 23.7585 7.5767C23.8835 7.93655 23.946 8.38163 23.946 8.91193C23.9479 9.41193 23.8949 9.8589 23.7869 10.2528C23.6809 10.6449 23.5284 10.9763 23.3295 11.2472C23.1307 11.518 22.8911 11.7244 22.6108 11.8665C22.3305 12.0085 22.0152 12.0795 21.6648 12.0795C21.2973 12.0795 20.9716 12.0076 20.6875 11.8636C20.4053 11.7197 20.1771 11.5227 20.0028 11.2727C19.8286 11.0227 19.7216 10.7367 19.6818 10.4148H20.7188C20.7718 10.6458 20.8797 10.8295 21.0426 10.9659C21.2074 11.1004 21.4148 11.1676 21.6648 11.1676C22.0682 11.1676 22.3788 10.9924 22.5966 10.642C22.8144 10.2917 22.9233 9.80492 22.9233 9.18182H22.8835C22.7907 9.34848 22.6705 9.49242 22.5227 9.61364C22.375 9.73295 22.2074 9.82481 22.0199 9.8892C21.8343 9.9536 21.6373 9.9858 21.429 9.9858C21.0881 9.9858 20.7813 9.90436 20.5085 9.74148C20.2377 9.5786 20.0227 9.35511 19.8636 9.07102C19.7064 8.78693 19.6269 8.46212 19.625 8.09659C19.625 7.7178 19.7121 7.37784 19.8864 7.0767C20.0625 6.77367 20.3078 6.53504 20.6222 6.3608C20.9366 6.18466 21.304 6.09848 21.7244 6.10227ZM21.7273 6.95455C21.5227 6.95455 21.3381 7.00473 21.1733 7.10511C21.0104 7.2036 20.8816 7.33807 20.7869 7.50852C20.6941 7.67708 20.6477 7.86553 20.6477 8.07386C20.6496 8.2803 20.696 8.4678 20.7869 8.63636C20.8797 8.80492 21.0057 8.93845 21.1648 9.03693C21.3258 9.13542 21.5095 9.18466 21.7159 9.18466C21.8693 9.18466 22.0123 9.1553 22.1449 9.09659C22.2775 9.03788 22.393 8.95644 22.4915 8.85227C22.5919 8.74621 22.6695 8.62595 22.7244 8.49148C22.7813 8.35701 22.8087 8.21496 22.8068 8.06534C22.8068 7.86648 22.7595 7.68277 22.6648 7.5142C22.572 7.34564 22.4441 7.21023 22.2812 7.10795C22.1203 7.00568 21.9356 6.95455 21.7273 6.95455ZM25.8842 11.2045L25.8473 11.517C25.8208 11.7557 25.7734 11.9981 25.7053 12.2443C25.639 12.4924 25.5689 12.7206 25.495 12.929C25.4212 13.1373 25.3615 13.3011 25.3161 13.4205H24.6229C24.6494 13.3049 24.6854 13.1477 24.7308 12.9489C24.7782 12.75 24.8236 12.5265 24.8672 12.2784C24.9107 12.0303 24.9401 11.7784 24.9553 11.5227L24.9751 11.2045H25.8842ZM28.929 12.0795C28.6506 12.0777 28.3788 12.0294 28.1136 11.9347C27.8485 11.8381 27.6098 11.6818 27.3977 11.4659C27.1856 11.2481 27.017 10.9593 26.892 10.5994C26.767 10.2377 26.7055 9.78977 26.7074 9.25568C26.7074 8.75758 26.7604 8.31345 26.8665 7.9233C26.9725 7.53314 27.125 7.2036 27.3239 6.93466C27.5227 6.66383 27.7623 6.45739 28.0426 6.31534C28.3248 6.1733 28.6402 6.10227 28.9886 6.10227C29.3542 6.10227 29.678 6.17424 29.9602 6.31818C30.2443 6.46212 30.4735 6.65909 30.6477 6.90909C30.822 7.1572 30.9299 7.4375 30.9716 7.75H29.9347C29.8816 7.52652 29.7727 7.34848 29.608 7.21591C29.4451 7.08144 29.2386 7.0142 28.9886 7.0142C28.5852 7.0142 28.2746 7.18939 28.0568 7.53977C27.8409 7.89015 27.732 8.37121 27.7301 8.98295H27.7699C27.8627 8.81629 27.983 8.6733 28.1307 8.55398C28.2784 8.43466 28.4451 8.3428 28.6307 8.27841C28.8182 8.21212 29.0161 8.17898 29.2244 8.17898C29.5653 8.17898 29.8712 8.26042 30.142 8.4233C30.4148 8.58617 30.6307 8.81061 30.7898 9.09659C30.9489 9.38068 31.0275 9.70644 31.0256 10.0739C31.0275 10.4564 30.9403 10.8002 30.7642 11.1051C30.5881 11.4081 30.3428 11.6468 30.0284 11.821C29.714 11.9953 29.3475 12.0814 28.929 12.0795ZM28.9233 11.2273C29.1297 11.2273 29.3144 11.1771 29.4773 11.0767C29.6402 10.9763 29.7689 10.8409 29.8636 10.6705C29.9583 10.5 30.0047 10.3087 30.0028 10.0966C30.0047 9.88826 29.9593 9.69981 29.8665 9.53125C29.7756 9.36269 29.6496 9.22917 29.4886 9.13068C29.3277 9.0322 29.1439 8.98295 28.9375 8.98295C28.7841 8.98295 28.6411 9.01231 28.5085 9.07102C28.3759 9.12973 28.2604 9.21117 28.1619 9.31534C28.0634 9.41761 27.9858 9.53693 27.929 9.6733C27.8741 9.80777 27.8456 9.9517 27.8438 10.1051C27.8456 10.3078 27.893 10.4943 27.9858 10.6648C28.0786 10.8352 28.2064 10.9716 28.3693 11.0739C28.5322 11.1761 28.7169 11.2273 28.9233 11.2273ZM34.1364 12.1108C33.6686 12.1108 33.267 11.9924 32.9318 11.7557C32.5985 11.517 32.3419 11.1733 32.1619 10.7244C31.9839 10.2737 31.8949 9.73106 31.8949 9.09659C31.8968 8.46212 31.9867 7.92235 32.1648 7.47727C32.3447 7.0303 32.6013 6.68939 32.9347 6.45455C33.2699 6.2197 33.6705 6.10227 34.1364 6.10227C34.6023 6.10227 35.0028 6.2197 35.3381 6.45455C35.6733 6.68939 35.9299 7.0303 36.108 7.47727C36.2879 7.92424 36.3778 8.46402 36.3778 9.09659C36.3778 9.73295 36.2879 10.2765 36.108 10.7273C35.9299 11.1761 35.6733 11.5189 35.3381 11.7557C35.0047 11.9924 34.6042 12.1108 34.1364 12.1108ZM34.1364 11.2216C34.5 11.2216 34.7869 11.0426 34.9972 10.6847C35.2093 10.3248 35.3153 9.79545 35.3153 9.09659C35.3153 8.63447 35.267 8.24621 35.1705 7.93182C35.0739 7.61742 34.9375 7.38068 34.7614 7.22159C34.5852 7.06061 34.3769 6.98011 34.1364 6.98011C33.7746 6.98011 33.4886 7.16004 33.2784 7.51989C33.0682 7.87784 32.9621 8.40341 32.9602 9.09659C32.9583 9.56061 33.0047 9.95076 33.0994 10.267C33.196 10.5833 33.3324 10.822 33.5085 10.983C33.6847 11.142 33.8939 11.2216 34.1364 11.2216ZM39.4098 12.0795C39.0007 12.0795 38.6371 12.0095 38.3189 11.8693C38.0026 11.7292 37.7526 11.5341 37.5689 11.2841C37.3852 11.0341 37.2876 10.7453 37.2763 10.4176H38.3445C38.3539 10.5748 38.406 10.7121 38.5007 10.8295C38.5954 10.9451 38.7214 11.035 38.8786 11.0994C39.0357 11.1638 39.2119 11.196 39.407 11.196C39.6153 11.196 39.8 11.16 39.9609 11.0881C40.1219 11.0142 40.2479 10.9119 40.3388 10.7812C40.4297 10.6506 40.4742 10.5 40.4723 10.3295C40.4742 10.1534 40.4287 9.99811 40.3359 9.86364C40.2431 9.72917 40.1087 9.62405 39.9325 9.5483C39.7583 9.47254 39.5481 9.43466 39.3018 9.43466H38.7876V8.62216H39.3018C39.5045 8.62216 39.6816 8.58712 39.8331 8.51705C39.9865 8.44697 40.1068 8.34848 40.1939 8.22159C40.281 8.0928 40.3236 7.94413 40.3217 7.77557C40.3236 7.6108 40.2867 7.4678 40.2109 7.34659C40.1371 7.22348 40.032 7.12784 39.8956 7.05966C39.7611 6.99148 39.603 6.95739 39.4212 6.95739C39.2431 6.95739 39.0784 6.98958 38.9268 7.05398C38.7753 7.11837 38.6532 7.21023 38.5604 7.32955C38.4676 7.44697 38.4183 7.58712 38.4126 7.75H37.3984C37.406 7.42424 37.4998 7.13826 37.6797 6.89205C37.8615 6.64394 38.1039 6.45076 38.407 6.3125C38.71 6.17235 39.05 6.10227 39.4268 6.10227C39.8151 6.10227 40.1522 6.17519 40.4382 6.32102C40.7261 6.46496 40.9486 6.65909 41.1058 6.90341C41.263 7.14773 41.3416 7.41761 41.3416 7.71307C41.3435 8.04072 41.2469 8.31534 41.0518 8.53693C40.8587 8.75852 40.6049 8.90341 40.2905 8.97159V9.01705C40.6996 9.07386 41.013 9.22538 41.2308 9.47159C41.4505 9.71591 41.5594 10.0199 41.5575 10.3835C41.5575 10.7093 41.4647 11.0009 41.2791 11.2585C41.0954 11.5142 40.8416 11.715 40.5178 11.8608C40.1958 12.0066 39.8265 12.0795 39.4098 12.0795ZM43.0057 12.0625C42.8333 12.0625 42.6856 12.0019 42.5625 11.8807C42.4394 11.7595 42.3788 11.6117 42.3807 11.4375C42.3788 11.267 42.4394 11.1212 42.5625 11C42.6856 10.8788 42.8333 10.8182 43.0057 10.8182C43.1723 10.8182 43.3172 10.8788 43.4403 11C43.5653 11.1212 43.6288 11.267 43.6307 11.4375C43.6288 11.553 43.5985 11.6581 43.5398 11.7528C43.483 11.8475 43.4072 11.9233 43.3125 11.9801C43.2197 12.035 43.1174 12.0625 43.0057 12.0625ZM46.6051 12.1108C46.1373 12.1108 45.7358 11.9924 45.4006 11.7557C45.0672 11.517 44.8106 11.1733 44.6307 10.7244C44.4527 10.2737 44.3636 9.73106 44.3636 9.09659C44.3655 8.46212 44.4555 7.92235 44.6335 7.47727C44.8134 7.0303 45.0701 6.68939 45.4034 6.45455C45.7386 6.2197 46.1392 6.10227 46.6051 6.10227C47.071 6.10227 47.4716 6.2197 47.8068 6.45455C48.142 6.68939 48.3987 7.0303 48.5767 7.47727C48.7566 7.92424 48.8466 8.46402 48.8466 9.09659C48.8466 9.73295 48.7566 10.2765 48.5767 10.7273C48.3987 11.1761 48.142 11.5189 47.8068 11.7557C47.4735 11.9924 47.0729 12.1108 46.6051 12.1108ZM46.6051 11.2216C46.9688 11.2216 47.2557 11.0426 47.4659 10.6847C47.678 10.3248 47.7841 9.79545 47.7841 9.09659C47.7841 8.63447 47.7358 8.24621 47.6392 7.93182C47.5426 7.61742 47.4063 7.38068 47.2301 7.22159C47.054 7.06061 46.8456 6.98011 46.6051 6.98011C46.2434 6.98011 45.9574 7.16004 45.7472 7.51989C45.5369 7.87784 45.4309 8.40341 45.429 9.09659C45.4271 9.56061 45.4735 9.95076 45.5682 10.267C45.6648 10.5833 45.8011 10.822 45.9773 10.983C46.1534 11.142 46.3627 11.2216 46.6051 11.2216ZM51.9411 12.1108C51.4732 12.1108 51.0717 11.9924 50.7365 11.7557C50.4032 11.517 50.1465 11.1733 49.9666 10.7244C49.7886 10.2737 49.6996 9.73106 49.6996 9.09659C49.7015 8.46212 49.7914 7.92235 49.9695 7.47727C50.1494 7.0303 50.406 6.68939 50.7393 6.45455C51.0746 6.2197 51.4751 6.10227 51.9411 6.10227C52.407 6.10227 52.8075 6.2197 53.1428 6.45455C53.478 6.68939 53.7346 7.0303 53.9126 7.47727C54.0926 7.92424 54.1825 8.46402 54.1825 9.09659C54.1825 9.73295 54.0926 10.2765 53.9126 10.7273C53.7346 11.1761 53.478 11.5189 53.1428 11.7557C52.8094 11.9924 52.4089 12.1108 51.9411 12.1108ZM51.9411 11.2216C52.3047 11.2216 52.5916 11.0426 52.8018 10.6847C53.014 10.3248 53.12 9.79545 53.12 9.09659C53.12 8.63447 53.0717 8.24621 52.9751 7.93182C52.8786 7.61742 52.7422 7.38068 52.5661 7.22159C52.3899 7.06061 52.1816 6.98011 51.9411 6.98011C51.5793 6.98011 51.2933 7.16004 51.0831 7.51989C50.8729 7.87784 50.7668 8.40341 50.7649 9.09659C50.763 9.56061 50.8094 9.95076 50.9041 10.267C51.0007 10.5833 51.1371 10.822 51.3132 10.983C51.4893 11.142 51.6986 11.2216 51.9411 11.2216Z"
    fill="#FAFAFA" />
  <defs>
    <clipPath id="clip0_47_951">
      <rect width="9" height="9" fill="white" transform="translate(4 13) rotate(-90)" />
    </clipPath>
  </defs>
</svg>