<svg width="58" height="56" viewBox="0 0 58 56" fill="none" xmlns="http://www.w3.org/2000/svg">
  <line x1="29" y1="15" x2="29" y2="25" stroke="#F13005" stroke-width="2" />
  <rect x="21" width="16" height="16" rx="8" fill="#F13005" />
  <path d="M29 7.5V11.5M29 11.5L30.5 10M29 11.5L27.5 10M27.5 5.5H28M30 5.5H30.5M32.5 5.5H33M25 5.5H25.5"
    stroke="#FAFAFA" stroke-linecap="round" stroke-linejoin="round" />
  <rect y="24" width="58" height="32" rx="8" fill="#F13005" />
  <path
    d="M8.57386 37V31.1818H10.7557C11.2027 31.1818 11.5777 31.2652 11.8807 31.4318C12.1856 31.5985 12.4157 31.8277 12.571 32.1193C12.7282 32.4091 12.8068 32.7386 12.8068 33.108C12.8068 33.4811 12.7282 33.8125 12.571 34.1023C12.4138 34.392 12.1818 34.6203 11.875 34.7869C11.5682 34.9517 11.1903 35.0341 10.7415 35.0341H9.29545V34.1676H10.5994C10.8608 34.1676 11.0748 34.1222 11.2415 34.0312C11.4081 33.9403 11.5313 33.8153 11.6108 33.6562C11.6922 33.4972 11.733 33.3144 11.733 33.108C11.733 32.9015 11.6922 32.7197 11.6108 32.5625C11.5313 32.4053 11.4072 32.2831 11.2386 32.196C11.072 32.107 10.857 32.0625 10.5938 32.0625H9.62784V37H8.57386ZM13.6768 37V32.6364H14.674V33.3636H14.7195C14.799 33.1117 14.9354 32.9176 15.1286 32.7812C15.3236 32.643 15.5462 32.5739 15.7962 32.5739C15.853 32.5739 15.9164 32.5767 15.9865 32.5824C16.0585 32.5862 16.1181 32.5928 16.1655 32.6023V33.5483C16.1219 33.5331 16.0528 33.5199 15.9581 33.5085C15.8653 33.4953 15.7753 33.4886 15.6882 33.4886C15.5007 33.4886 15.3321 33.5294 15.1825 33.6108C15.0348 33.6903 14.9183 33.8011 14.8331 33.9432C14.7479 34.0852 14.7053 34.2491 14.7053 34.4347V37H13.6768ZM18.5724 37.0852C18.1463 37.0852 17.777 36.9915 17.4645 36.804C17.152 36.6165 16.9096 36.3542 16.7372 36.017C16.5668 35.6799 16.4815 35.286 16.4815 34.8352C16.4815 34.3845 16.5668 33.9896 16.7372 33.6506C16.9096 33.3116 17.152 33.0483 17.4645 32.8608C17.777 32.6733 18.1463 32.5795 18.5724 32.5795C18.9986 32.5795 19.3679 32.6733 19.6804 32.8608C19.9929 33.0483 20.2344 33.3116 20.4048 33.6506C20.5772 33.9896 20.6634 34.3845 20.6634 34.8352C20.6634 35.286 20.5772 35.6799 20.4048 36.017C20.2344 36.3542 19.9929 36.6165 19.6804 36.804C19.3679 36.9915 18.9986 37.0852 18.5724 37.0852ZM18.5781 36.2614C18.8092 36.2614 19.0024 36.1979 19.1577 36.071C19.313 35.9422 19.4285 35.7699 19.5043 35.554C19.5819 35.3381 19.6207 35.0975 19.6207 34.8324C19.6207 34.5653 19.5819 34.3239 19.5043 34.108C19.4285 33.8902 19.313 33.7169 19.1577 33.5881C19.0024 33.4593 18.8092 33.3949 18.5781 33.3949C18.3414 33.3949 18.1444 33.4593 17.9872 33.5881C17.8319 33.7169 17.7154 33.8902 17.6378 34.108C17.562 34.3239 17.5241 34.5653 17.5241 34.8324C17.5241 35.0975 17.562 35.3381 17.6378 35.554C17.7154 35.7699 17.8319 35.9422 17.9872 36.071C18.1444 36.1979 18.3414 36.2614 18.5781 36.2614ZM23.7464 32.6364V33.4318H21.1669V32.6364H23.7464ZM21.8118 37V32.2244C21.8118 31.9309 21.8724 31.6866 21.9936 31.4915C22.1167 31.2964 22.2815 31.1506 22.4879 31.054C22.6944 30.9574 22.9235 30.9091 23.1754 30.9091C23.3535 30.9091 23.5116 30.9233 23.6499 30.9517C23.7881 30.9801 23.8904 31.0057 23.9567 31.0284L23.7521 31.8239C23.7086 31.8106 23.6536 31.7973 23.5874 31.7841C23.5211 31.7689 23.4472 31.7614 23.3658 31.7614C23.1745 31.7614 23.0391 31.8078 22.9595 31.9006C22.8819 31.9915 22.843 32.1222 22.843 32.2926V37H21.8118ZM24.5518 37V32.6364H25.5803V37H24.5518ZM25.0689 32.017C24.906 32.017 24.7659 31.9631 24.6484 31.8551C24.531 31.7453 24.4723 31.6136 24.4723 31.4602C24.4723 31.3049 24.531 31.1733 24.6484 31.0653C24.7659 30.9555 24.906 30.9006 25.0689 30.9006C25.2337 30.9006 25.3738 30.9555 25.4893 31.0653C25.6068 31.1733 25.6655 31.3049 25.6655 31.4602C25.6655 31.6136 25.6068 31.7453 25.4893 31.8551C25.3738 31.9631 25.2337 32.017 25.0689 32.017ZM28.8168 32.6364V33.4318H26.3082V32.6364H28.8168ZM26.9276 31.5909H27.956V35.6875C27.956 35.8258 27.9768 35.9318 28.0185 36.0057C28.062 36.0777 28.1188 36.1269 28.1889 36.1534C28.259 36.1799 28.3366 36.1932 28.4219 36.1932C28.4863 36.1932 28.545 36.1884 28.598 36.179C28.6529 36.1695 28.6946 36.161 28.723 36.1534L28.8963 36.9574C28.8414 36.9763 28.7628 36.9972 28.6605 37.0199C28.5601 37.0426 28.437 37.0559 28.2912 37.0597C28.0336 37.0672 27.8016 37.0284 27.5952 36.9432C27.3887 36.8561 27.2249 36.7216 27.1037 36.5398C26.9844 36.358 26.9257 36.1307 26.9276 35.858V31.5909ZM10.6676 49.1108C10.1998 49.1108 9.7983 48.9924 9.46307 48.7557C9.12973 48.517 8.87311 48.1733 8.69318 47.7244C8.51515 47.2737 8.42614 46.7311 8.42614 46.0966C8.42803 45.4621 8.51799 44.9223 8.69602 44.4773C8.87595 44.0303 9.13258 43.6894 9.46591 43.4545C9.80114 43.2197 10.2017 43.1023 10.6676 43.1023C11.1335 43.1023 11.5341 43.2197 11.8693 43.4545C12.2045 43.6894 12.4612 44.0303 12.6392 44.4773C12.8191 44.9242 12.9091 45.464 12.9091 46.0966C12.9091 46.733 12.8191 47.2765 12.6392 47.7273C12.4612 48.1761 12.2045 48.5189 11.8693 48.7557C11.536 48.9924 11.1354 49.1108 10.6676 49.1108ZM10.6676 48.2216C11.0313 48.2216 11.3182 48.0426 11.5284 47.6847C11.7405 47.3248 11.8466 46.7955 11.8466 46.0966C11.8466 45.6345 11.7983 45.2462 11.7017 44.9318C11.6051 44.6174 11.4688 44.3807 11.2926 44.2216C11.1165 44.0606 10.9081 43.9801 10.6676 43.9801C10.3059 43.9801 10.0199 44.16 9.80966 44.5199C9.59943 44.8778 9.49337 45.4034 9.49148 46.0966C9.48958 46.5606 9.53598 46.9508 9.63068 47.267C9.72727 47.5833 9.86364 47.822 10.0398 47.983C10.2159 48.142 10.4252 48.2216 10.6676 48.2216ZM14.2713 49.0625C14.099 49.0625 13.9512 49.0019 13.8281 48.8807C13.705 48.7595 13.6444 48.6117 13.6463 48.4375C13.6444 48.267 13.705 48.1212 13.8281 48C13.9512 47.8788 14.099 47.8182 14.2713 47.8182C14.438 47.8182 14.5829 47.8788 14.706 48C14.831 48.1212 14.8944 48.267 14.8963 48.4375C14.8944 48.553 14.8641 48.6581 14.8054 48.7528C14.7486 48.8475 14.6728 48.9233 14.5781 48.9801C14.4853 49.035 14.383 49.0625 14.2713 49.0625ZM17.8707 49.1108C17.4029 49.1108 17.0014 48.9924 16.6662 48.7557C16.3329 48.517 16.0762 48.1733 15.8963 47.7244C15.7183 47.2737 15.6293 46.7311 15.6293 46.0966C15.6312 45.4621 15.7211 44.9223 15.8991 44.4773C16.0791 44.0303 16.3357 43.6894 16.669 43.4545C17.0043 43.2197 17.4048 43.1023 17.8707 43.1023C18.3366 43.1023 18.7372 43.2197 19.0724 43.4545C19.4077 43.6894 19.6643 44.0303 19.8423 44.4773C20.0223 44.9242 20.1122 45.464 20.1122 46.0966C20.1122 46.733 20.0223 47.2765 19.8423 47.7273C19.6643 48.1761 19.4077 48.5189 19.0724 48.7557C18.7391 48.9924 18.3385 49.1108 17.8707 49.1108ZM17.8707 48.2216C18.2344 48.2216 18.5213 48.0426 18.7315 47.6847C18.9437 47.3248 19.0497 46.7955 19.0497 46.0966C19.0497 45.6345 19.0014 45.2462 18.9048 44.9318C18.8082 44.6174 18.6719 44.3807 18.4957 44.2216C18.3196 44.0606 18.1113 43.9801 17.8707 43.9801C17.509 43.9801 17.223 44.16 17.0128 44.5199C16.8026 44.8778 16.6965 45.4034 16.6946 46.0966C16.6927 46.5606 16.7391 46.9508 16.8338 47.267C16.9304 47.5833 17.0668 47.822 17.2429 47.983C17.419 48.142 17.6283 48.2216 17.8707 48.2216ZM23.2067 49.1108C22.7389 49.1108 22.3374 48.9924 22.0021 48.7557C21.6688 48.517 21.4122 48.1733 21.2322 47.7244C21.0542 47.2737 20.9652 46.7311 20.9652 46.0966C20.9671 45.4621 21.0571 44.9223 21.2351 44.4773C21.415 44.0303 21.6716 43.6894 22.005 43.4545C22.3402 43.2197 22.7408 43.1023 23.2067 43.1023C23.6726 43.1023 24.0732 43.2197 24.4084 43.4545C24.7436 43.6894 25.0002 44.0303 25.1783 44.4773C25.3582 44.9242 25.4482 45.464 25.4482 46.0966C25.4482 46.733 25.3582 47.2765 25.1783 47.7273C25.0002 48.1761 24.7436 48.5189 24.4084 48.7557C24.075 48.9924 23.6745 49.1108 23.2067 49.1108ZM23.2067 48.2216C23.5703 48.2216 23.8572 48.0426 24.0675 47.6847C24.2796 47.3248 24.3857 46.7955 24.3857 46.0966C24.3857 45.6345 24.3374 45.2462 24.2408 44.9318C24.1442 44.6174 24.0078 44.3807 23.8317 44.2216C23.6555 44.0606 23.4472 43.9801 23.2067 43.9801C22.8449 43.9801 22.5589 44.16 22.3487 44.5199C22.1385 44.8778 22.0324 45.4034 22.0305 46.0966C22.0286 46.5606 22.075 46.9508 22.1697 47.267C22.2663 47.5833 22.4027 47.822 22.5788 47.983C22.755 48.142 22.9643 48.2216 23.2067 48.2216ZM32.1009 43.1818H33.1548V46.983C33.1548 47.3996 33.0563 47.7661 32.8594 48.0824C32.6643 48.3987 32.3897 48.6458 32.0355 48.8239C31.6813 49 31.2675 49.0881 30.794 49.0881C30.3187 49.0881 29.9039 49 29.5497 48.8239C29.1955 48.6458 28.9209 48.3987 28.7259 48.0824C28.5308 47.7661 28.4332 47.3996 28.4332 46.983V43.1818H29.4872V46.8949C29.4872 47.1373 29.5402 47.3532 29.6463 47.5426C29.7543 47.732 29.9058 47.8807 30.1009 47.9886C30.2959 48.0947 30.527 48.1477 30.794 48.1477C31.0611 48.1477 31.2921 48.0947 31.4872 47.9886C31.6842 47.8807 31.8357 47.732 31.9418 47.5426C32.0478 47.3532 32.1009 47.1373 32.1009 46.8949V43.1818ZM37.4624 44.7812C37.4358 44.5331 37.3241 44.34 37.1271 44.2017C36.9321 44.0634 36.6783 43.9943 36.3658 43.9943C36.1461 43.9943 35.9576 44.0275 35.8004 44.0938C35.6432 44.16 35.523 44.25 35.4396 44.3636C35.3563 44.4773 35.3137 44.607 35.3118 44.7528C35.3118 44.8741 35.3393 44.9792 35.3942 45.0682C35.451 45.1572 35.5277 45.233 35.6243 45.2955C35.7209 45.3561 35.8279 45.4072 35.9453 45.4489C36.0627 45.4905 36.1811 45.5256 36.3004 45.554L36.8459 45.6903C37.0656 45.7415 37.2768 45.8106 37.4794 45.8977C37.6839 45.9848 37.8667 46.0947 38.0277 46.2273C38.1906 46.3598 38.3194 46.5199 38.4141 46.7074C38.5088 46.8949 38.5561 47.1146 38.5561 47.3665C38.5561 47.7074 38.469 48.0076 38.2947 48.267C38.1205 48.5246 37.8686 48.7263 37.5391 48.8722C37.2114 49.0161 36.8146 49.0881 36.3487 49.0881C35.8961 49.0881 35.5031 49.018 35.1697 48.8778C34.8383 48.7377 34.5788 48.5331 34.3913 48.2642C34.2057 47.9953 34.1054 47.6676 34.0902 47.2812H35.1271C35.1423 47.4839 35.2048 47.6525 35.3146 47.7869C35.4245 47.9214 35.5675 48.0218 35.7436 48.0881C35.9216 48.1544 36.1205 48.1875 36.3402 48.1875C36.5694 48.1875 36.7701 48.1534 36.9425 48.0852C37.1167 48.0152 37.2531 47.9186 37.3516 47.7955C37.45 47.6705 37.5002 47.5246 37.5021 47.358C37.5002 47.2064 37.4557 47.0814 37.3686 46.983C37.2815 46.8826 37.1593 46.7992 37.0021 46.733C36.8468 46.6648 36.665 46.6042 36.4567 46.5511L35.7947 46.3807C35.3156 46.2576 34.9368 46.071 34.6584 45.821C34.3819 45.5691 34.2436 45.2348 34.2436 44.8182C34.2436 44.4754 34.3364 44.1752 34.522 43.9176C34.7095 43.66 34.9643 43.4602 35.2862 43.3182C35.6082 43.1742 35.9728 43.1023 36.38 43.1023C36.7929 43.1023 37.1546 43.1742 37.4652 43.3182C37.7777 43.4602 38.023 43.6581 38.201 43.9119C38.379 44.1638 38.4709 44.4536 38.4766 44.7812H37.4624ZM41.4673 49H39.4957V43.1818H41.5071C42.0848 43.1818 42.581 43.2983 42.9957 43.5312C43.4124 43.7623 43.7325 44.0947 43.956 44.5284C44.1795 44.9621 44.2912 45.4811 44.2912 46.0852C44.2912 46.6913 44.1785 47.2121 43.9531 47.6477C43.7296 48.0833 43.4067 48.4176 42.9844 48.6506C42.5639 48.8835 42.0582 49 41.4673 49ZM40.5497 48.0881H41.4162C41.8215 48.0881 42.1596 48.0142 42.4304 47.8665C42.7012 47.7169 42.9048 47.4943 43.0412 47.1989C43.1776 46.9015 43.2457 46.5303 43.2457 46.0852C43.2457 45.6402 43.1776 45.2708 43.0412 44.9773C42.9048 44.6818 42.7031 44.4612 42.4361 44.3153C42.1709 44.1676 41.8414 44.0938 41.4474 44.0938H40.5497V48.0881ZM44.7791 44.0653V43.1818H49.4212V44.0653H47.6229V49H46.5774V44.0653H44.7791Z"
    fill="white" />
</svg>